<svg width="21" height="20" viewBox="0 0 21 20" fill="none" xmlns="http://www.w3.org/2000/svg">
<g clip-path="url(#clip0_24531_3997)">
<path d="M10.5 20C16.0228 20 20.5 15.5228 20.5 9.99998C20.5 4.47714 16.0228 0 10.5 0C4.97724 0 0.5 4.47714 0.5 9.99998C0.5 15.5228 4.97724 20 10.5 20Z" fill="#121723"/>
<path d="M17.4385 4.54403L13.7295 3.17688L8.3957 10.8638L8.92677 7.37522L6.02058 5.68231L0.67395 12.1142C0.924269 13.386 1.4102 14.5719 2.08387 15.624L5.27373 11.7712L4.09993 16.2963L7.73707 17.6272L13.1408 9.84652L11.9569 14.2959L14.9033 16.018L20.558 10.3176C20.5592 10.2536 20.5599 10.189 20.5599 10.1247C20.5599 8.78271 20.3017 7.50144 19.8329 6.32909L16.5482 9.65392L17.4385 4.54403Z" fill="#F0D288"/>
</g>
<defs>
<clipPath id="clip0_24531_3997">
<rect x="0.5" width="20" height="20" rx="10" fill="white"/>
</clipPath>
</defs>
</svg>
